<?xml version="1.0" encoding="UTF-8"?>
<!DOCTYPE svg PUBLIC "-//W3C//DTD SVG 1.1//EN" "http://www.w3.org/Graphics/SVG/1.1/DTD/svg11.dtd">
<svg xmlns="http://www.w3.org/2000/svg" version="1.1" width="576px" height="433px" style="shape-rendering:geometricPrecision; text-rendering:geometricPrecision; image-rendering:optimizeQuality; fill-rule:evenodd; clip-rule:evenodd" xmlns:xlink="http://www.w3.org/1999/xlink">
<g><path style="opacity:1" fill="#260304" d="M 428.5,54.5 C 428.511,56.0174 429.177,57.1841 430.5,58C 429.062,58.2189 427.729,58.7189 426.5,59.5C 427.859,61.5178 429.193,63.5178 430.5,65.5C 428.251,64.9202 426.585,63.5869 425.5,61.5C 424.71,60.2058 423.71,59.0391 422.5,58C 361.332,57.168 300.332,57.3347 239.5,58.5C 202.498,58.3333 165.498,58.5 128.5,59C 127.748,59.6708 127.414,60.5041 127.5,61.5C 125.537,62.8202 123.537,64.1535 121.5,65.5C 121.901,61.7336 123.901,59.2336 127.5,58C 226.399,56.3378 325.232,56.1712 424,57.5C 424.483,56.552 424.649,55.552 424.5,54.5C 425.833,54.5 427.167,54.5 428.5,54.5 Z"/></g>
<g><path style="opacity:1" fill="#3c0002" d="M 239.5,58.5 C 300.332,57.3347 361.332,57.168 422.5,58C 423.71,59.0391 424.71,60.2058 425.5,61.5C 423.804,61.3146 422.471,60.4813 421.5,59C 360.834,58.5 300.168,58.3333 239.5,58.5 Z"/></g>
<g><path style="opacity:1" fill="#be0228" d="M 336.5,60.5 C 364.835,60.3334 393.169,60.5 421.5,61C 425.411,64.2645 428.244,67.7645 430,71.5C 430.414,71.0426 430.914,70.7093 431.5,70.5C 433.45,71.3721 435.45,72.0388 437.5,72.5C 441.414,76.4829 445.414,80.4829 449.5,84.5C 450.417,87.4173 451.084,90.4173 451.5,93.5C 449.08,93.2924 446.747,93.6258 444.5,94.5C 434.753,90.0257 426.586,83.359 420,74.5C 419.506,72.8659 419.34,71.1992 419.5,69.5C 389.014,69.4308 358.514,69.7642 328,70.5C 325.667,69.8333 323.333,69.1667 321,68.5C 315.27,70.1042 309.437,71.1042 303.5,71.5C 303.966,73.2012 303.966,74.7012 303.5,76C 308.557,78.3543 313.89,79.8543 319.5,80.5C 327.38,82.2517 335.38,83.7517 343.5,85C 348.193,87.0486 352.859,89.0486 357.5,91C 359.516,91.8995 361.183,93.2328 362.5,95C 364.952,95.2895 367.285,95.9562 369.5,97C 371.37,99.0396 373.37,100.873 375.5,102.5C 375.842,103.338 376.508,103.672 377.5,103.5C 382.19,113.602 383.69,124.269 382,135.5C 380.648,137.594 380.148,139.927 380.5,142.5C 377.365,149.313 372.699,154.98 366.5,159.5C 353.815,165.343 340.815,170.343 327.5,174.5C 338.41,176.612 349.077,179.445 359.5,183C 365.294,186.309 370.627,190.142 375.5,194.5C 375.877,196.258 376.544,197.925 377.5,199.5C 376.147,200.524 375.48,201.857 375.5,203.5C 380.858,204.026 383.691,207.026 384,212.5C 384.391,218.863 385.058,225.197 386,231.5C 387.434,229.864 389.267,228.864 391.5,228.5C 392.281,229.729 392.781,231.062 393,232.5C 394.342,231.098 395.176,231.431 395.5,233.5C 395.68,234.554 396.013,235.554 396.5,236.5C 394.949,239.359 393.949,242.359 393.5,245.5C 393.649,246.552 393.483,247.552 393,248.5C 388.544,253.11 384.71,258.11 381.5,263.5C 373.889,271.117 366.556,279.117 359.5,287.5C 354.196,290.981 350.029,295.647 347,301.5C 343.99,304.677 340.824,307.677 337.5,310.5C 336.5,310.5 335.5,310.5 334.5,310.5C 334.5,311.5 334.5,312.5 334.5,313.5C 332.099,314.049 329.765,314.882 327.5,316C 330.259,318.574 329.926,320.74 326.5,322.5C 325.833,322.167 325.167,321.833 324.5,321.5C 322.438,323.403 321.104,325.737 320.5,328.5C 320.245,326.657 320.078,324.657 320,322.5C 318.933,321.809 317.766,321.309 316.5,321C 314.828,317.857 315.494,315.357 318.5,313.5C 319.452,311.955 319.785,310.288 319.5,308.5C 322.422,307.099 325.255,305.432 328,303.5C 329.262,299.328 331.428,295.328 334.5,291.5C 336.433,287.302 339.099,283.635 342.5,280.5C 345.687,278.656 347.687,275.989 348.5,272.5C 347.5,272.5 346.5,272.5 345.5,272.5C 341.374,272.572 337.374,273.239 333.5,274.5C 333.719,273.325 333.386,272.325 332.5,271.5C 330.684,272.815 329.017,274.315 327.5,276C 324.964,276.186 322.631,276.686 320.5,277.5C 318.712,277.785 317.045,277.452 315.5,276.5C 317.5,275.833 319.5,275.167 321.5,274.5C 320.208,272.333 319.375,270 319,267.5C 317.89,269.037 316.39,269.703 314.5,269.5C 314.5,268.167 314.5,266.833 314.5,265.5C 315.5,265.5 316.5,265.5 317.5,265.5C 317.261,263.533 317.594,261.699 318.5,260C 315.811,256.952 314.478,253.286 314.5,249C 314.82,246.201 315.82,243.701 317.5,241.5C 318.176,229.605 318.843,217.772 319.5,206C 315.916,204.245 313.583,201.412 312.5,197.5C 310.978,196.438 309.312,195.771 307.5,195.5C 302.849,192.768 298.183,189.934 293.5,187C 290.274,185.801 286.941,185.301 283.5,185.5C 283.244,183.224 281.91,182.057 279.5,182C 267.924,181.18 256.424,181.346 245,182.5C 244.171,201.671 244.338,220.671 245.5,239.5C 245.173,249.015 245.506,258.348 246.5,267.5C 246.918,268.222 247.584,268.722 248.5,269C 261.504,269.37 274.504,269.203 287.5,268.5C 291.936,268.21 296.27,268.71 300.5,270C 300.201,271.32 300.034,272.82 300,274.5C 297.895,275.311 295.895,276.311 294,277.5C 293.228,277.355 292.561,277.022 292,276.5C 287.051,277.79 282.051,278.79 277,279.5C 276,279.167 275,278.833 274,278.5C 257.069,279.16 240.235,279.827 223.5,280.5C 219.958,280.187 216.625,280.521 213.5,281.5C 212.167,283.5 212.167,285.5 213.5,287.5C 219.22,291.888 223.887,297.222 227.5,303.5C 227.5,304.5 227.5,305.5 227.5,306.5C 224.978,306.128 222.978,306.961 221.5,309C 222.996,309.507 224.163,309.007 225,307.5C 225.49,308.793 225.657,310.127 225.5,311.5C 226.93,311.579 228.264,311.246 229.5,310.5C 230.244,311.991 230.91,313.491 231.5,315C 234.416,317.142 237.416,319.142 240.5,321C 239.5,321.667 238.5,321.667 237.5,321C 235.117,320.196 232.95,319.029 231,317.5C 231.438,319.601 231.938,321.435 232.5,323C 231.776,325.67 230.109,327.17 227.5,327.5C 226.833,327.167 226.167,326.833 225.5,326.5C 222.94,322.43 219.773,318.764 216,315.5C 208.746,305.575 200.746,296.242 192,287.5C 189.413,283.239 186.413,279.239 183,275.5C 172.347,263.677 161.847,251.677 151.5,239.5C 150.162,237.33 148.328,235.664 146,234.5C 141.718,227.721 136.884,221.388 131.5,215.5C 130.215,212.882 130.548,210.382 132.5,208C 130.953,207.667 129.62,208.167 128.5,209.5C 127.167,208.833 126.167,207.833 125.5,206.5C 127.833,205.833 130.167,205.167 132.5,204.5C 130.137,201.238 127.471,200.904 124.5,203.5C 122.65,201.323 120.316,199.823 117.5,199C 115.421,194.881 112.755,191.214 109.5,188C 109.451,185.954 109.785,183.787 110.5,181.5C 111.167,182.167 111.833,182.833 112.5,183.5C 113.298,181.922 113.798,180.256 114,178.5C 114.374,179.416 114.874,180.25 115.5,181C 117.126,180.805 118.793,180.805 120.5,181C 122.844,183.605 125.51,185.772 128.5,187.5C 144.119,204.46 159.452,221.793 174.5,239.5C 175.925,240.922 176.925,242.589 177.5,244.5C 178.568,245.434 179.901,245.768 181.5,245.5C 182.499,193.336 182.832,141.003 182.5,88.5C 179.962,87.9573 177.628,86.9573 175.5,85.5C 167.169,83.1649 158.836,80.6649 150.5,78C 144.889,76.7313 139.222,75.898 133.5,75.5C 127.787,75.5349 126.453,73.2016 129.5,68.5C 128.635,67.4173 127.635,67.2506 126.5,68C 126.619,69.2812 126.119,70.4479 125,71.5C 123.294,70.6921 122.461,69.3588 122.5,67.5C 123.5,67.5 124.5,67.5 125.5,67.5C 126.174,64.0933 128.341,62.76 132,63.5C 134.59,63.3757 136.923,64.0423 139,65.5C 142.267,63.8989 145.767,63.0655 149.5,63C 202.393,61.8088 254.56,61.6421 306,62.5C 316.308,61.8673 326.475,61.2006 336.5,60.5 Z"/></g>
<g><path style="opacity:1" fill="#94102a" d="M 239.5,58.5 C 300.168,58.3333 360.834,58.5 421.5,59C 422.471,60.4813 423.804,61.3146 425.5,61.5C 426.585,63.5869 428.251,64.9202 430.5,65.5C 433.167,67.5 435.5,69.8333 437.5,72.5C 435.45,72.0388 433.45,71.3721 431.5,70.5C 430.914,70.7093 430.414,71.0426 430,71.5C 428.244,67.7645 425.411,64.2645 421.5,61C 393.169,60.5 364.835,60.3334 336.5,60.5C 266.762,60.1702 197.096,60.5035 127.5,61.5C 127.414,60.5041 127.748,59.6708 128.5,59C 165.498,58.5 202.498,58.3333 239.5,58.5 Z"/></g>
<g><path style="opacity:1" fill="#6c071b" d="M 115.5,71.5 C 113.5,73.671 111.666,76.0043 110,78.5C 108.871,80.1412 107.371,81.1412 105.5,81.5C 107.82,77.18 111.153,73.8467 115.5,71.5 Z"/></g>
<g><path style="opacity:1" fill="#1c0801" d="M 133.5,75.5 C 139.222,75.898 144.889,76.7313 150.5,78C 158.836,80.6649 167.169,83.1649 175.5,85.5C 176.5,86.8333 177.5,88.1667 178.5,89.5C 178.759,137.175 178.259,184.842 177,232.5C 176.71,234.92 176.21,237.254 175.5,239.5C 175.167,239.5 174.833,239.5 174.5,239.5C 159.452,221.793 144.119,204.46 128.5,187.5C 113.321,168.716 98.3208,149.716 83.5,130.5C 86.0901,126.317 88.9234,122.317 92,118.5C 105.333,105.167 118.667,91.8333 132,78.5C 132.513,77.4734 133.013,76.4734 133.5,75.5 Z"/></g>
<g><path style="opacity:1" fill="#faea0b" d="M 172.5,93.5 C 172.685,137.175 172.185,180.841 171,224.5C 170.329,223.748 169.496,223.414 168.5,223.5C 142.219,192.878 115.885,162.211 89.5,131.5C 104.718,115.571 120.052,99.7372 135.5,84C 148.779,83.5948 161.112,86.7615 172.5,93.5 Z"/></g>
<g><path style="opacity:1" fill="#8b1227" d="M 319.5,78.5 C 323.154,78.9422 326.821,79.2756 330.5,79.5C 344.787,82.578 358.12,88.078 370.5,96C 372.79,97.7772 374.457,99.9438 375.5,102.5C 373.37,100.873 371.37,99.0396 369.5,97C 367.285,95.9562 364.952,95.2895 362.5,95C 361.183,93.2328 359.516,91.8995 357.5,91C 352.859,89.0486 348.193,87.0486 343.5,85C 335.38,83.7517 327.38,82.2517 319.5,80.5C 319.5,79.8333 319.5,79.1667 319.5,78.5 Z"/></g>
<g><path style="opacity:1" fill="#b90428" d="M 336.5,60.5 C 326.475,61.2006 316.308,61.8673 306,62.5C 254.56,61.6421 202.393,61.8088 149.5,63C 145.767,63.0655 142.267,63.8989 139,65.5C 136.923,64.0423 134.59,63.3757 132,63.5C 128.341,62.76 126.174,64.0933 125.5,67.5C 124.5,67.5 123.5,67.5 122.5,67.5C 122.461,69.3588 123.294,70.6921 125,71.5C 126.119,70.4479 126.619,69.2812 126.5,68C 127.635,67.2506 128.635,67.4173 129.5,68.5C 126.453,73.2016 127.787,75.5349 133.5,75.5C 133.013,76.4734 132.513,77.4734 132,78.5C 118.667,91.8333 105.333,105.167 92,118.5C 88.9234,122.317 86.0901,126.317 83.5,130.5C 98.3208,149.716 113.321,168.716 128.5,187.5C 125.51,185.772 122.844,183.605 120.5,181C 118.793,180.805 117.126,180.805 115.5,181C 114.874,180.25 114.374,179.416 114,178.5C 113.798,180.256 113.298,181.922 112.5,183.5C 111.833,182.833 111.167,182.167 110.5,181.5C 109.785,183.787 109.451,185.954 109.5,188C 112.755,191.214 115.421,194.881 117.5,199C 120.316,199.823 122.65,201.323 124.5,203.5C 127.471,200.904 130.137,201.238 132.5,204.5C 130.167,205.167 127.833,205.833 125.5,206.5C 126.167,207.833 127.167,208.833 128.5,209.5C 129.62,208.167 130.953,207.667 132.5,208C 130.548,210.382 130.215,212.882 131.5,215.5C 125.842,209.342 120.009,203.342 114,197.5C 113.439,195.275 112.439,193.275 111,191.5C 93.6322,171.305 76.1322,151.305 58.5,131.5C 61.3898,126.773 65.2231,122.773 70,119.5C 70.4101,118.099 70.9101,116.766 71.5,115.5C 79.5864,107.487 87.4198,99.1532 95,90.5C 98.3723,87.2901 101.872,84.2901 105.5,81.5C 107.371,81.1412 108.871,80.1412 110,78.5C 111.666,76.0043 113.5,73.671 115.5,71.5C 116.812,68.8549 118.812,66.8549 121.5,65.5C 123.537,64.1535 125.537,62.8202 127.5,61.5C 197.096,60.5035 266.762,60.1702 336.5,60.5 Z"/></g>
<g><path style="opacity:1" fill="#1e1103" d="M 277.5,88.5 C 290.235,90.04 301.235,95.04 310.5,103.5C 311.167,104.833 311.833,106.167 312.5,107.5C 314.391,117.396 314.891,127.396 314,137.5C 312.355,142.423 310.522,147.089 308.5,151.5C 306.629,154.061 304.629,156.561 302.5,159C 296.904,160.395 291.571,162.395 286.5,165C 284.527,165.495 282.527,165.662 280.5,165.5C 269.671,167.546 258.838,167.879 248,166.5C 247.5,142.169 247.333,117.836 247.5,93.5C 247.33,92.1779 247.663,91.0113 248.5,90C 258.134,88.8526 267.8,88.3526 277.5,88.5 Z"/></g>
<g><path style="opacity:1" fill="#f8e912" d="M 286.5,159.5 C 280.627,159.596 274.96,160.263 269.5,161.5C 264.167,161.5 258.833,161.5 253.5,161.5C 253.5,138.833 253.5,116.167 253.5,93.5C 269.368,92.867 284.701,95.367 299.5,101C 307.607,107.14 310.94,115.307 309.5,125.5C 310.435,142.863 302.768,154.196 286.5,159.5 Z"/></g>
<g><path style="opacity:1" fill="#a10a28" d="M 310.5,103.5 C 301.235,95.04 290.235,90.04 277.5,88.5C 275.629,87.2028 273.629,86.2028 271.5,85.5C 274.777,85.7839 277.943,85.4505 281,84.5C 282.214,86.0488 283.714,87.2155 285.5,88C 293.536,90.186 300.869,93.686 307.5,98.5C 308.32,100.319 309.32,101.986 310.5,103.5 Z"/></g>
<g><path style="opacity:1" fill="#9c0d27" d="M 377.5,103.5 C 379.113,103.944 380.28,104.944 381,106.5C 384.029,115.198 385.029,124.198 384,133.5C 383.495,136.865 382.328,139.865 380.5,142.5C 380.148,139.927 380.648,137.594 382,135.5C 383.69,124.269 382.19,113.602 377.5,103.5 Z"/></g>
<g><path style="opacity:1" fill="#610915" d="M 271.5,85.5 C 273.629,86.2028 275.629,87.2028 277.5,88.5C 267.8,88.3526 258.134,88.8526 248.5,90C 247.663,91.0113 247.33,92.1779 247.5,93.5C 246.502,117.994 246.169,142.661 246.5,167.5C 245.502,141.672 245.169,115.672 245.5,89.5C 245.36,87.8762 246.027,86.7096 247.5,86C 255.493,85.5003 263.493,85.3336 271.5,85.5 Z"/></g>
<g><path style="opacity:1" fill="#2e0603" d="M 312.5,107.5 C 314.898,110.655 316.064,114.321 316,118.5C 317.032,127.724 316.032,136.724 313,145.5C 311.637,147.684 310.137,149.684 308.5,151.5C 310.522,147.089 312.355,142.423 314,137.5C 314.891,127.396 314.391,117.396 312.5,107.5 Z"/></g>
<g><path style="opacity:0.875" fill="#190c0c" d="M 428.5,54.5 C 427.167,54.5 425.833,54.5 424.5,54.5C 424.649,55.552 424.483,56.552 424,57.5C 325.232,56.1712 226.399,56.3378 127.5,58C 123.901,59.2336 121.901,61.7336 121.5,65.5C 118.812,66.8549 116.812,68.8549 115.5,71.5C 111.153,73.8467 107.82,77.18 105.5,81.5C 101.872,84.2901 98.3723,87.2901 95,90.5C 87.4198,99.1532 79.5864,107.487 71.5,115.5C 67.2331,119.428 62.8997,123.428 58.5,127.5C 57.218,128.958 57.218,130.292 58.5,131.5C 76.1322,151.305 93.6322,171.305 111,191.5C 112.439,193.275 113.439,195.275 114,197.5C 120.009,203.342 125.842,209.342 131.5,215.5C 136.884,221.388 141.718,227.721 146,234.5C 148.328,235.664 150.162,237.33 151.5,239.5C 150.923,242.55 152.09,244.55 155,245.5C 155.192,247.577 155.692,249.577 156.5,251.5C 157.451,250.674 158.451,250.508 159.5,251C 161,252.5 162.5,254 164,255.5C 164.492,256.549 164.326,257.549 163.5,258.5C 164.76,259.382 165.926,260.382 167,261.5C 167.333,261.167 167.667,260.833 168,260.5C 169.495,264.158 170.995,267.825 172.5,271.5C 174.506,271.132 176.506,271.632 178.5,273C 178.043,273.414 177.709,273.914 177.5,274.5C 180.393,275.226 182.059,277.059 182.5,280C 181.833,280.667 181.167,281.333 180.5,282C 181.252,282.671 181.586,283.504 181.5,284.5C 139.934,236.422 98.1004,188.422 56,140.5C 54.0655,137.629 52.3988,134.629 51,131.5C 50.289,129.101 50.4557,126.768 51.5,124.5C 76.9794,101.521 101.646,77.6875 125.5,53C 185.174,52.0749 244.841,50.9083 304.5,49.5C 341.843,52.0064 379.176,52.0064 416.5,49.5C 419.855,50.2291 423.188,51.0624 426.5,52C 427.381,52.7083 428.047,53.5416 428.5,54.5 Z"/></g>
<g><path style="opacity:1" fill="#7b0a21" d="M 71.5,115.5 C 70.9101,116.766 70.4101,118.099 70,119.5C 65.2231,122.773 61.3898,126.773 58.5,131.5C 57.218,130.292 57.218,128.958 58.5,127.5C 62.8997,123.428 67.2331,119.428 71.5,115.5 Z"/></g>
<g><path style="opacity:1" fill="#350406" d="M 247.5,93.5 C 247.333,117.836 247.5,142.169 248,166.5C 258.838,167.879 269.671,167.546 280.5,165.5C 277.647,166.954 274.647,167.954 271.5,168.5C 263.512,169.333 255.512,169.499 247.5,169C 246.944,168.617 246.611,168.117 246.5,167.5C 246.169,142.661 246.502,117.994 247.5,93.5 Z"/></g>
<g><path style="opacity:0.996" fill="#190a0c" d="M 428.5,54.5 C 451.857,78.0243 475.69,101.024 500,123.5C 500.97,125.274 501.804,127.107 502.5,129C 495.347,138.156 488.181,147.322 481,156.5C 452.622,190.611 423.789,224.277 394.5,257.5C 396.225,254.156 398.225,250.989 400.5,248C 399.675,246.312 398.675,246.145 397.5,247.5C 396.167,246.5 396.167,245.5 397.5,244.5C 400.126,243.705 401.793,243.705 402.5,244.5C 403.668,243.094 403.335,241.928 401.5,241C 403.351,240.163 405.184,239.329 407,238.5C 407.374,236.102 407.374,233.769 407,231.5C 410.964,226.756 415.631,223.09 421,220.5C 421.543,218.369 422.376,216.369 423.5,214.5C 424.833,214.167 426.167,213.833 427.5,213.5C 426.185,211.801 426.185,210.135 427.5,208.5C 429.943,207.891 431.61,206.391 432.5,204C 433.449,203.383 434.282,203.549 435,204.5C 439.886,197.033 445.053,189.7 450.5,182.5C 454.898,179.105 458.564,175.105 461.5,170.5C 464.54,167.461 467.206,164.127 469.5,160.5C 473.904,157.426 477.237,153.426 479.5,148.5C 481.843,145.464 483.843,142.13 485.5,138.5C 488.223,136.066 490.723,133.399 493,130.5C 493.667,129.5 493.667,128.5 493,127.5C 479.299,113.322 465.466,99.1551 451.5,85C 450.906,84.5357 450.239,84.369 449.5,84.5C 445.414,80.4829 441.414,76.4829 437.5,72.5C 435.5,69.8333 433.167,67.5 430.5,65.5C 429.193,63.5178 427.859,61.5178 426.5,59.5C 427.729,58.7189 429.062,58.2189 430.5,58C 429.177,57.1841 428.511,56.0174 428.5,54.5 Z"/></g>
<g><path style="opacity:1" fill="#550616" d="M 479.5,148.5 C 477.237,153.426 473.904,157.426 469.5,160.5C 471.688,155.498 475.021,151.498 479.5,148.5 Z"/></g>
<g><path style="opacity:1" fill="#a7961e" d="M 286.5,159.5 C 281.071,161.012 275.404,161.679 269.5,161.5C 274.96,160.263 280.627,159.596 286.5,159.5 Z"/></g>
<g><path style="opacity:1" fill="#9e162f" d="M 175.5,85.5 C 177.628,86.9573 179.962,87.9573 182.5,88.5C 182.832,141.003 182.499,193.336 181.5,245.5C 181.831,216.662 181.498,187.995 180.5,159.5C 180.83,143.325 180.496,127.325 179.5,111.5C 179.825,103.981 179.492,96.6476 178.5,89.5C 177.5,88.1667 176.5,86.8333 175.5,85.5 Z"/></g>
<g><path style="opacity:1" fill="#500513" d="M 469.5,160.5 C 467.206,164.127 464.54,167.461 461.5,170.5C 463.033,166.296 465.7,162.963 469.5,160.5 Z"/></g>
<g><path style="opacity:1" fill="#a90827" d="M 245.5,89.5 C 245.169,115.672 245.502,141.672 246.5,167.5C 246.611,168.117 246.944,168.617 247.5,169C 255.512,169.499 263.512,169.333 271.5,168.5C 265.092,170.16 258.425,170.993 251.5,171C 250.354,171.645 249.354,172.478 248.5,173.5C 246.077,171.914 243.41,170.914 240.5,170.5C 239.167,169.833 239.167,169.167 240.5,168.5C 241.736,169.246 243.07,169.579 244.5,169.5C 243.66,143.17 243.494,116.837 244,90.5C 244.383,89.944 244.883,89.6107 245.5,89.5 Z"/></g>
<g><path style="opacity:1" fill="#470510" d="M 461.5,170.5 C 458.564,175.105 454.898,179.105 450.5,182.5C 453.436,177.895 457.102,173.895 461.5,170.5 Z"/></g>
<g><path style="opacity:1" fill="#b30829" d="M 449.5,84.5 C 450.239,84.369 450.906,84.5357 451.5,85C 465.466,99.1551 479.299,113.322 493,127.5C 493.667,128.5 493.667,129.5 493,130.5C 490.723,133.399 488.223,136.066 485.5,138.5C 483.843,142.13 481.843,145.464 479.5,148.5C 475.021,151.498 471.688,155.498 469.5,160.5C 465.7,162.963 463.033,166.296 461.5,170.5C 457.102,173.895 453.436,177.895 450.5,182.5C 444.507,188.467 438.507,194.467 432.5,200.5C 430.78,203.202 429.113,205.868 427.5,208.5C 425.484,209.456 423.651,210.79 422,212.5C 412.32,223.347 402.82,234.347 393.5,245.5C 393.949,242.359 394.949,239.359 396.5,236.5C 396.013,235.554 395.68,234.554 395.5,233.5C 395.176,231.431 394.342,231.098 393,232.5C 392.781,231.062 392.281,229.729 391.5,228.5C 389.267,228.864 387.434,229.864 386,231.5C 385.058,225.197 384.391,218.863 384,212.5C 383.691,207.026 380.858,204.026 375.5,203.5C 375.48,201.857 376.147,200.524 377.5,199.5C 376.544,197.925 375.877,196.258 375.5,194.5C 378.521,197.366 381.021,200.7 383,204.5C 385.692,211.572 387.525,218.905 388.5,226.5C 413.119,198.377 437.952,170.377 463,142.5C 465.911,139.01 468.578,135.344 471,131.5C 471.667,129.833 471.667,128.167 471,126.5C 462.464,118.295 453.631,110.462 444.5,103C 435.995,93.6618 427.328,84.4951 418.5,75.5C 417.77,74.2876 416.77,73.2876 415.5,72.5C 379.5,71.3471 343.5,71.3471 307.5,72.5C 307.5,73.5 307.5,74.5 307.5,75.5C 311.2,77.46 315.2,78.46 319.5,78.5C 319.5,79.1667 319.5,79.8333 319.5,80.5C 313.89,79.8543 308.557,78.3543 303.5,76C 303.966,74.7012 303.966,73.2012 303.5,71.5C 309.437,71.1042 315.27,70.1042 321,68.5C 323.333,69.1667 325.667,69.8333 328,70.5C 358.514,69.7642 389.014,69.4308 419.5,69.5C 419.34,71.1992 419.506,72.8659 420,74.5C 426.586,83.359 434.753,90.0257 444.5,94.5C 446.747,93.6258 449.08,93.2924 451.5,93.5C 451.084,90.4173 450.417,87.4173 449.5,84.5 Z"/></g>
<g><path style="opacity:1" fill="#350204" d="M 399.5,75.5 C 376.104,74.9733 352.771,75.8067 329.5,78C 330.056,78.3826 330.389,78.8826 330.5,79.5C 326.821,79.2756 323.154,78.9422 319.5,78.5C 316.28,77.0088 312.946,75.5088 309.5,74C 334.167,73.3333 358.833,73.3333 383.5,74C 389.016,74.1733 394.349,74.6733 399.5,75.5 Z"/></g>
<g><path style="opacity:1" fill="#86152a" d="M 418.5,75.5 C 412.167,75.5 405.833,75.5 399.5,75.5C 394.349,74.6733 389.016,74.1733 383.5,74C 358.833,73.3333 334.167,73.3333 309.5,74C 312.946,75.5088 316.28,77.0088 319.5,78.5C 315.2,78.46 311.2,77.46 307.5,75.5C 307.5,74.5 307.5,73.5 307.5,72.5C 343.5,71.3471 379.5,71.3471 415.5,72.5C 416.77,73.2876 417.77,74.2876 418.5,75.5 Z"/></g>
<g><path style="opacity:1" fill="#770617" d="M 283.5,185.5 C 271.234,183.823 258.901,183.156 246.5,183.5C 245.503,201.993 245.17,220.659 245.5,239.5C 244.338,220.671 244.171,201.671 245,182.5C 256.424,181.346 267.924,181.18 279.5,182C 281.91,182.057 283.244,183.224 283.5,185.5 Z"/></g>
<g><path style="opacity:1" fill="#530814" d="M 246.5,183.5 C 246.5,211.167 246.5,238.833 246.5,266.5C 260.167,266.5 273.833,266.5 287.5,266.5C 287.5,266.833 287.5,267.167 287.5,267.5C 273.833,267.5 260.167,267.5 246.5,267.5C 245.506,258.348 245.173,249.015 245.5,239.5C 245.17,220.659 245.503,201.993 246.5,183.5 Z"/></g>
<g><path style="opacity:1" fill="#670713" d="M 180.5,159.5 C 181.498,187.995 181.831,216.662 181.5,245.5C 179.901,245.768 178.568,245.434 177.5,244.5C 178.5,244.5 179.5,244.5 180.5,244.5C 180.5,216.167 180.5,187.833 180.5,159.5 Z"/></g>
<g><path style="opacity:1" fill="#2e0202" d="M 178.5,89.5 C 179.492,96.6476 179.825,103.981 179.5,111.5C 179.41,149.699 179.41,187.866 179.5,226C 178.971,230.85 178.304,235.683 177.5,240.5C 176.817,240.137 176.15,239.804 175.5,239.5C 176.21,237.254 176.71,234.92 177,232.5C 178.259,184.842 178.759,137.175 178.5,89.5 Z"/></g>
<g><path style="opacity:1" fill="#310a0c" d="M 450.5,182.5 C 445.053,189.7 439.886,197.033 435,204.5C 434.282,203.549 433.449,203.383 432.5,204C 431.61,206.391 429.943,207.891 427.5,208.5C 429.113,205.868 430.78,203.202 432.5,200.5C 438.507,194.467 444.507,188.467 450.5,182.5 Z"/></g>
<g><path style="opacity:1" fill="#1c0801" d="M 399.5,75.5 C 405.833,75.5 412.167,75.5 418.5,75.5C 427.328,84.4951 435.995,93.6618 444.5,103C 453.631,110.462 462.464,118.295 471,126.5C 471.667,128.167 471.667,129.833 471,131.5C 468.578,135.344 465.911,139.01 463,142.5C 437.952,170.377 413.119,198.377 388.5,226.5C 387.525,218.905 385.692,211.572 383,204.5C 381.021,200.7 378.521,197.366 375.5,194.5C 370.627,190.142 365.294,186.309 359.5,183C 349.077,179.445 338.41,176.612 327.5,174.5C 340.815,170.343 353.815,165.343 366.5,159.5C 372.699,154.98 377.365,149.313 380.5,142.5C 382.328,139.865 383.495,136.865 384,133.5C 385.029,124.198 384.029,115.198 381,106.5C 380.28,104.944 379.113,103.944 377.5,103.5C 376.508,103.672 375.842,103.338 375.5,102.5C 374.457,99.9438 372.79,97.7772 370.5,96C 358.12,88.078 344.787,82.578 330.5,79.5C 330.389,78.8826 330.056,78.3826 329.5,78C 352.771,75.8067 376.104,74.9733 399.5,75.5 Z"/></g>
<g><path style="opacity:1" fill="#f8e912" d="M 417.5,83.5 C 433.693,98.5261 449.026,114.359 463.5,131C 440.749,159.088 417.249,186.588 393,213.5C 385.9,193.901 372.4,180.901 352.5,174.5C 362.692,168.806 372.192,162.14 381,154.5C 388.576,142.53 391.909,129.53 391,115.5C 388.402,107.136 383.902,99.9691 377.5,94C 373.32,91.3036 369.32,88.4702 365.5,85.5C 364.942,84.2101 363.942,83.3768 362.5,83C 380.859,81.3565 399.192,81.5232 417.5,83.5 Z"/></g>
<g><path style="opacity:1" fill="#e5d437" d="M 417.5,83.5 C 399.192,81.5232 380.859,81.3565 362.5,83C 363.942,83.3768 364.942,84.2101 365.5,85.5C 362.533,85.0114 359.867,83.8448 357.5,82C 376.795,80.411 396.129,80.0777 415.5,81C 416.381,81.7083 417.047,82.5416 417.5,83.5 Z"/></g>
<g><path style="opacity:1" fill="#aea122" d="M 172.5,93.5 C 174.036,114.477 174.703,135.644 174.5,157C 174.405,176.508 174.071,196.008 173.5,215.5C 173.125,219.442 172.125,223.109 170.5,226.5C 169.833,225.5 169.167,224.5 168.5,223.5C 169.496,223.414 170.329,223.748 171,224.5C 172.185,180.841 172.685,137.175 172.5,93.5 Z"/></g>
<g><path style="opacity:1" fill="#1a0601" d="M 246.5,183.5 C 258.901,183.156 271.234,183.823 283.5,185.5C 286.941,185.301 290.274,185.801 293.5,187C 298.183,189.934 302.849,192.768 307.5,195.5C 310.501,199.005 313.334,202.672 316,206.5C 316.667,217.5 316.667,228.5 316,239.5C 312.772,255.23 303.272,264.23 287.5,266.5C 273.833,266.5 260.167,266.5 246.5,266.5C 246.5,238.833 246.5,211.167 246.5,183.5 Z"/></g>
<g><path style="opacity:1" fill="#f9e913" d="M 275.5,260.5 C 268.167,260.5 260.833,260.5 253.5,260.5C 253.5,237.167 253.5,213.833 253.5,190.5C 302.442,183.653 319.609,203.986 305,251.5C 296.77,259.408 286.937,262.408 275.5,260.5 Z"/></g>
<g><path style="opacity:1" fill="#776d1d" d="M 173.5,215.5 C 173.826,219.884 173.492,224.217 172.5,228.5C 171.478,228.145 170.811,227.478 170.5,226.5C 172.125,223.109 173.125,219.442 173.5,215.5 Z"/></g>
<g><path style="opacity:1" fill="#3f0003" d="M 179.5,111.5 C 180.496,127.325 180.83,143.325 180.5,159.5C 180.5,187.833 180.5,216.167 180.5,244.5C 179.5,244.5 178.5,244.5 177.5,244.5C 176.925,242.589 175.925,240.922 174.5,239.5C 174.833,239.5 175.167,239.5 175.5,239.5C 176.15,239.804 176.817,240.137 177.5,240.5C 178.304,235.683 178.971,230.85 179.5,226C 179.41,187.866 179.41,149.699 179.5,111.5 Z"/></g>
<g><path style="opacity:1" fill="#5f5308" d="M 253.5,190.5 C 253.5,213.833 253.5,237.167 253.5,260.5C 260.833,260.5 268.167,260.5 275.5,260.5C 267.723,262.088 259.723,262.754 251.5,262.5C 251.333,242.497 251.5,222.497 252,202.5C 252.176,198.312 252.676,194.312 253.5,190.5 Z"/></g>
<g><path style="opacity:1" fill="#270d0d" d="M 427.5,208.5 C 426.185,210.135 426.185,211.801 427.5,213.5C 426.167,213.833 424.833,214.167 423.5,214.5C 422.376,216.369 421.543,218.369 421,220.5C 415.631,223.09 410.964,226.756 407,231.5C 407.374,233.769 407.374,236.102 407,238.5C 405.184,239.329 403.351,240.163 401.5,241C 403.335,241.928 403.668,243.094 402.5,244.5C 401.793,243.705 400.126,243.705 397.5,244.5C 396.167,245.5 396.167,246.5 397.5,247.5C 398.675,246.145 399.675,246.312 400.5,248C 398.225,250.989 396.225,254.156 394.5,257.5C 392.589,257.426 391.422,256.426 391,254.5C 388.699,258.298 385.533,261.298 381.5,263.5C 384.71,258.11 388.544,253.11 393,248.5C 393.483,247.552 393.649,246.552 393.5,245.5C 402.82,234.347 412.32,223.347 422,212.5C 423.651,210.79 425.484,209.456 427.5,208.5 Z"/></g>
<g><path style="opacity:1" fill="#8c0d23" d="M 246.5,267.5 C 260.167,267.5 273.833,267.5 287.5,267.5C 287.5,267.833 287.5,268.167 287.5,268.5C 274.504,269.203 261.504,269.37 248.5,269C 247.584,268.722 246.918,268.222 246.5,267.5 Z"/></g>
<g><path style="opacity:1" fill="#b10929" d="M 307.5,195.5 C 309.312,195.771 310.978,196.438 312.5,197.5C 313.583,201.412 315.916,204.245 319.5,206C 318.843,217.772 318.176,229.605 317.5,241.5C 315.82,243.701 314.82,246.201 314.5,249C 314.478,253.286 315.811,256.952 318.5,260C 317.594,261.699 317.261,263.533 317.5,265.5C 316.5,265.5 315.5,265.5 314.5,265.5C 314.5,266.833 314.5,268.167 314.5,269.5C 316.39,269.703 317.89,269.037 319,267.5C 319.375,270 320.208,272.333 321.5,274.5C 319.5,275.167 317.5,275.833 315.5,276.5C 317.045,277.452 318.712,277.785 320.5,277.5C 308.7,278.996 296.7,279.829 284.5,280C 264.169,280.5 243.836,280.667 223.5,280.5C 240.235,279.827 257.069,279.16 274,278.5C 275,278.833 276,279.167 277,279.5C 282.051,278.79 287.051,277.79 292,276.5C 292.561,277.022 293.228,277.355 294,277.5C 295.895,276.311 297.895,275.311 300,274.5C 300.034,272.82 300.201,271.32 300.5,270C 296.27,268.71 291.936,268.21 287.5,268.5C 287.5,268.167 287.5,267.833 287.5,267.5C 287.5,267.167 287.5,266.833 287.5,266.5C 303.272,264.23 312.772,255.23 316,239.5C 316.667,228.5 316.667,217.5 316,206.5C 313.334,202.672 310.501,199.005 307.5,195.5 Z"/></g>
<g><path style="opacity:1" fill="#2f0503" d="M 345.5,272.5 C 346.5,272.5 347.5,272.5 348.5,272.5C 347.687,275.989 345.687,278.656 342.5,280.5C 342.5,279.167 342.5,277.833 342.5,276.5C 335.9,277.681 329.233,278.681 322.5,279.5C 330.043,276.71 337.71,274.377 345.5,272.5 Z"/></g>
<g><path style="opacity:1" fill="#9f102c" d="M 345.5,272.5 C 337.71,274.377 330.043,276.71 322.5,279.5C 305.56,281.271 288.56,281.937 271.5,281.5C 252.167,281.5 232.833,281.5 213.5,281.5C 216.625,280.521 219.958,280.187 223.5,280.5C 243.836,280.667 264.169,280.5 284.5,280C 296.7,279.829 308.7,278.996 320.5,277.5C 322.631,276.686 324.964,276.186 327.5,276C 329.017,274.315 330.684,272.815 332.5,271.5C 333.386,272.325 333.719,273.325 333.5,274.5C 337.374,273.239 341.374,272.572 345.5,272.5 Z"/></g>
<g><path style="opacity:1" fill="#5f0914" d="M 213.5,281.5 C 232.833,281.5 252.167,281.5 271.5,281.5C 271.5,281.833 271.5,282.167 271.5,282.5C 252.167,282.5 232.833,282.5 213.5,282.5C 213.5,284.167 213.5,285.833 213.5,287.5C 212.167,285.5 212.167,283.5 213.5,281.5 Z"/></g>
<g><path style="opacity:1" fill="#320101" d="M 322.5,279.5 C 318.796,281.091 314.796,281.924 310.5,282C 297.504,282.5 284.504,282.667 271.5,282.5C 271.5,282.167 271.5,281.833 271.5,281.5C 288.56,281.937 305.56,281.271 322.5,279.5 Z"/></g>
<g><path style="opacity:1" fill="#40070f" d="M 359.5,287.5 C 357.117,290.692 355.783,294.026 355.5,297.5C 354.15,297.432 352.816,297.432 351.5,297.5C 346.516,303.817 341.182,309.817 335.5,315.5C 336.167,313.833 336.833,312.167 337.5,310.5C 340.824,307.677 343.99,304.677 347,301.5C 350.029,295.647 354.196,290.981 359.5,287.5 Z"/></g>
<g><path style="opacity:1" fill="#240b0c" d="M 151.5,239.5 C 161.847,251.677 172.347,263.677 183,275.5C 186.413,279.239 189.413,283.239 192,287.5C 200.746,296.242 208.746,305.575 216,315.5C 219.773,318.764 222.94,322.43 225.5,326.5C 223.037,324.539 220.703,322.372 218.5,320C 217.256,319.544 216.423,320.044 216,321.5C 215.506,319.866 215.34,318.199 215.5,316.5C 213.436,316.313 211.436,315.813 209.5,315C 206.1,310.989 202.766,306.989 199.5,303C 199.905,302.055 200.572,301.388 201.5,301C 199.025,295.859 195.192,292.025 190,289.5C 189.667,289.833 189.333,290.167 189,290.5C 186.641,287.876 186.975,287.209 190,288.5C 190.269,285.72 189.102,283.554 186.5,282C 184.949,282.74 183.283,283.573 181.5,284.5C 181.586,283.504 181.252,282.671 180.5,282C 181.167,281.333 181.833,280.667 182.5,280C 182.059,277.059 180.393,275.226 177.5,274.5C 177.709,273.914 178.043,273.414 178.5,273C 176.506,271.632 174.506,271.132 172.5,271.5C 170.995,267.825 169.495,264.158 168,260.5C 167.667,260.833 167.333,261.167 167,261.5C 165.926,260.382 164.76,259.382 163.5,258.5C 164.326,257.549 164.492,256.549 164,255.5C 162.5,254 161,252.5 159.5,251C 158.451,250.508 157.451,250.674 156.5,251.5C 155.692,249.577 155.192,247.577 155,245.5C 152.09,244.55 150.923,242.55 151.5,239.5 Z"/></g>
<g><path style="opacity:1" fill="#ad0628" d="M 334.5,291.5 C 331.428,295.328 329.262,299.328 328,303.5C 325.255,305.432 322.422,307.099 319.5,308.5C 319.785,310.288 319.452,311.955 318.5,313.5C 315.494,315.357 314.828,317.857 316.5,321C 317.766,321.309 318.933,321.809 320,322.5C 320.078,324.657 320.245,326.657 320.5,328.5C 321.104,325.737 322.438,323.403 324.5,321.5C 325.167,321.833 325.833,322.167 326.5,322.5C 329.926,320.74 330.259,318.574 327.5,316C 329.765,314.882 332.099,314.049 334.5,313.5C 334.5,312.5 334.5,311.5 334.5,310.5C 335.5,310.5 336.5,310.5 337.5,310.5C 336.833,312.167 336.167,313.833 335.5,315.5C 329.891,322.778 323.558,329.444 316.5,335.5C 316.048,332.797 315.381,330.13 314.5,327.5C 313.5,327.833 312.833,328.5 312.5,329.5C 313.246,330.736 313.579,332.07 313.5,333.5C 312.167,333.5 310.833,333.5 309.5,333.5C 309.14,328.554 311.14,324.888 315.5,322.5C 315,322.167 314.5,321.833 314,321.5C 311.943,323.544 309.443,324.71 306.5,325C 304.297,327.372 301.963,329.539 299.5,331.5C 306.848,322.651 314.015,313.651 321,304.5C 325.863,300.496 330.363,296.163 334.5,291.5 Z"/></g>
<g><path style="opacity:1" fill="#190b0c" d="M 394.5,257.5 C 363.876,294.393 332.543,330.726 300.5,366.5C 300.288,364.616 299.288,363.283 297.5,362.5C 298.381,361.029 299.714,360.196 301.5,360C 300.483,358.951 300.316,357.784 301,356.5C 304.049,352.957 306.882,349.291 309.5,345.5C 311.808,342.185 314.141,338.851 316.5,335.5C 323.558,329.444 329.891,322.778 335.5,315.5C 341.182,309.817 346.516,303.817 351.5,297.5C 352.816,297.432 354.15,297.432 355.5,297.5C 355.783,294.026 357.117,290.692 359.5,287.5C 366.556,279.117 373.889,271.117 381.5,263.5C 385.533,261.298 388.699,258.298 391,254.5C 391.422,256.426 392.589,257.426 394.5,257.5 Z"/></g>
<g><path style="opacity:1" fill="#1b0701" d="M 342.5,280.5 C 339.099,283.635 336.433,287.302 334.5,291.5C 330.363,296.163 325.863,300.496 321,304.5C 314.015,313.651 306.848,322.651 299.5,331.5C 292.736,339.437 285.736,347.27 278.5,355C 277.5,355.667 276.5,355.667 275.5,355C 265.6,348.432 257.766,339.932 252,329.5C 244.627,321.796 237.627,313.796 231,305.5C 230.184,304.177 229.017,303.511 227.5,303.5C 223.887,297.222 219.22,291.888 213.5,287.5C 213.5,285.833 213.5,284.167 213.5,282.5C 232.833,282.5 252.167,282.5 271.5,282.5C 284.504,282.667 297.504,282.5 310.5,282C 314.796,281.924 318.796,281.091 322.5,279.5C 329.233,278.681 335.9,277.681 342.5,276.5C 342.5,277.833 342.5,279.167 342.5,280.5 Z"/></g>
<g><path style="opacity:1" fill="#f5e615" d="M 325.5,283.5 C 327.75,283.181 329.75,283.681 331.5,285C 313.049,306.073 294.715,327.24 276.5,348.5C 258.545,330.402 241.879,311.236 226.5,291C 252.123,289.007 277.79,288.007 303.5,288C 311.145,287.368 318.478,285.868 325.5,283.5 Z"/></g>
<g><path style="opacity:1" fill="#b90428" d="M 227.5,303.5 C 229.017,303.511 230.184,304.177 231,305.5C 237.627,313.796 244.627,321.796 252,329.5C 257.766,339.932 265.6,348.432 275.5,355C 276.5,355.667 277.5,355.667 278.5,355C 285.736,347.27 292.736,339.437 299.5,331.5C 301.963,329.539 304.297,327.372 306.5,325C 309.443,324.71 311.943,323.544 314,321.5C 314.5,321.833 315,322.167 315.5,322.5C 311.14,324.888 309.14,328.554 309.5,333.5C 310.833,333.5 312.167,333.5 313.5,333.5C 313.579,332.07 313.246,330.736 312.5,329.5C 312.833,328.5 313.5,327.833 314.5,327.5C 315.381,330.13 316.048,332.797 316.5,335.5C 314.141,338.851 311.808,342.185 309.5,345.5C 300.991,353.503 293.658,362.503 287.5,372.5C 283.839,375.165 280.839,378.498 278.5,382.5C 277.277,383.614 275.944,383.781 274.5,383C 262.742,368.902 250.575,355.069 238,341.5C 234.697,336.695 231.197,332.028 227.5,327.5C 230.109,327.17 231.776,325.67 232.5,323C 231.938,321.435 231.438,319.601 231,317.5C 232.95,319.029 235.117,320.196 237.5,321C 238.5,321.667 239.5,321.667 240.5,321C 237.416,319.142 234.416,317.142 231.5,315C 230.91,313.491 230.244,311.991 229.5,310.5C 228.264,311.246 226.93,311.579 225.5,311.5C 225.657,310.127 225.49,308.793 225,307.5C 224.163,309.007 222.996,309.507 221.5,309C 222.978,306.961 224.978,306.128 227.5,306.5C 227.5,305.5 227.5,304.5 227.5,303.5 Z"/></g>
<g><path style="opacity:1" fill="#1b0b0c" d="M 225.5,326.5 C 226.167,326.833 226.833,327.167 227.5,327.5C 231.197,332.028 234.697,336.695 238,341.5C 250.575,355.069 262.742,368.902 274.5,383C 275.944,383.781 277.277,383.614 278.5,382.5C 280.839,378.498 283.839,375.165 287.5,372.5C 288.812,371.855 289.812,370.855 290.5,369.5C 292.078,368.702 293.744,368.202 295.5,368C 294.701,363.504 295.534,363.337 298,367.5C 298.671,366.748 299.504,366.414 300.5,366.5C 294.197,375.97 286.364,383.97 277,390.5C 271.449,387.62 266.449,383.954 262,379.5C 235.159,347.802 208.325,316.136 181.5,284.5C 183.283,283.573 184.949,282.74 186.5,282C 189.102,283.554 190.269,285.72 190,288.5C 186.975,287.209 186.641,287.876 189,290.5C 189.333,290.167 189.667,289.833 190,289.5C 195.192,292.025 199.025,295.859 201.5,301C 200.572,301.388 199.905,302.055 199.5,303C 202.766,306.989 206.1,310.989 209.5,315C 211.436,315.813 213.436,316.313 215.5,316.5C 215.34,318.199 215.506,319.866 216,321.5C 216.423,320.044 217.256,319.544 218.5,320C 220.703,322.372 223.037,324.539 225.5,326.5 Z"/></g>
<g><path style="opacity:1" fill="#310b0c" d="M 309.5,345.5 C 306.882,349.291 304.049,352.957 301,356.5C 300.316,357.784 300.483,358.951 301.5,360C 299.714,360.196 298.381,361.029 297.5,362.5C 299.288,363.283 300.288,364.616 300.5,366.5C 299.504,366.414 298.671,366.748 298,367.5C 295.534,363.337 294.701,363.504 295.5,368C 293.744,368.202 292.078,368.702 290.5,369.5C 289.812,370.855 288.812,371.855 287.5,372.5C 293.658,362.503 300.991,353.503 309.5,345.5 Z"/></g>
</svg>
